<svg xmlns="http://www.w3.org/2000/svg" version="1.1"><polyline points="119.5,3.0,117.0,11.0,114.0,19.5,109.5,27.5,115.0,36.5,118.5,38.5,111.0,49.5,108.0,58.0,107.0,59.0,115.0,46.5,122.5,41.5" stroke="black" stroke-width="2" fill="none" />
<polyline points="123.0,36.5,115.5,44.0" stroke="black" stroke-width="2" fill="none" />
<polyline points="116.0,45.0,108.0,45.0" stroke="black" stroke-width="2" fill="none" />
<polyline points="106.5,37.0,114.5,36.5,123.0,36.5,131.5,36.5" stroke="black" stroke-width="2" fill="none" />
<polyline points="133.0,46.0,141.0,46.0" stroke="black" stroke-width="2" fill="none" />
<polyline points="141.0,53.0,133.5,53.5" stroke="black" stroke-width="2" fill="none" />
<polyline points="123.5,28.0,115.5,28.5,107.0,29.0" stroke="black" stroke-width="2" fill="none" />
<polyline points="106.0,31.0,94.5,39.0,89.0,47.0,85.0,55.5,80.5,64.0,77.5,72.0,75.0,75.0,82.5,57.0,90.0,43.0,98.0,36.0,106.0,32.0" stroke="black" stroke-width="2" fill="none" />
<polyline points="108.5,32.5,109.5,40.5,107.5,48.0,104.0,56.0,100.0,64.5,84.5,72.5,77.5,76.5,85.5,72.0,94.0,68.0,102.0,59.0" stroke="black" stroke-width="2" fill="none" />
<polyline points="99.0,60.0,107.0,60.0,115.0,60.0" stroke="black" stroke-width="2" fill="none" />
<polyline points="107.5,66.5,100.0,67.0,91.5,67.5" stroke="black" stroke-width="2" fill="none" />
<polyline points="94.0,71.5,86.5,76.0,79.0,80.0,71.0,87.5,63.5,88.0,55.0,93.5,47.0,97.5,39.0,102.5,31.0,107.5,23.0,112.5,15.0,117.5,7.0,123.0,12.0,119.0,23.5,111.0,36.5,103.0,50.0,94.5,65.0,86.0" stroke="black" stroke-width="2" fill="none" />
<polyline points="67.0,84.5,74.5,84.0" stroke="black" stroke-width="2" fill="none" />
<polyline points="76.0,77.0,84.0,76.5" stroke="black" stroke-width="2" fill="none" />
<polyline points="96.0,71.0,93.5,79.0,89.0,87.0,85.0,95.0,79.5,103.0,72.5,111.5" stroke="black" stroke-width="2" fill="none" />
<polyline points="75.5,108.5,83.5,108.0" stroke="black" stroke-width="2" fill="none" />
<polyline points="84.5,101.0,92.5,101.0" stroke="black" stroke-width="2" fill="none" />
<polyline points="68.0,88.0,65.0,96.0,64.0,103.5,65.5,112.0" stroke="black" stroke-width="2" fill="none" />
<polyline points="41.5,99.0,33.0,99.5" stroke="black" stroke-width="2" fill="none" />
<polyline points="92.0,38.0,100.5,37.5" stroke="black" stroke-width="2" fill="none" />
<polyline points="106.0,26.5,93.0,34.5,86.5,42.5,82.5,50.5,78.0,59.0,75.0,67.0,72.0,75.0,65.5,83.5,50.5,91.5,37.0,99.0,24.0,107.0,12.0,115.0,3.0,123.0,7.5,118.5,15.5,113.5,23.5,108.0,31.5,103.0,39.5,98.5,47.5,93.5,56.0,89.0,63.5,85.0,71.5,74.0,79.5,56.0,87.5,41.0,96.0,33.5,104.0,28.5,112.0,28.5,120.0,6.0,128.0,2.5" stroke="black" stroke-width="2" fill="none" />
<polyline points="125.0,5.0,132.5,4.0" stroke="black" stroke-width="2" fill="none" />
<polyline points="131.5,10.0,130.5,18.0,130.0,25.5,127.0,33.5,122.0,42.0,126.5,45.5,131.5,48.5,132.5,44.5,141.0,46.0,149.0,46.0" stroke="black" stroke-width="2" fill="none" />
<polyline points="132.5,13.5,124.5,14.0" stroke="black" stroke-width="2" fill="none" />
<polyline points="126.5,7.5,122.5,15.5,119.5,24.5,119.0,32.5,120.0,33.0" stroke="black" stroke-width="2" fill="none" />
<polyline points="116.5,21.0,124.5,11.0,131.0,7.0,128.0,15.5,127.5,23.5,124.5,31.5,128.5,41.5,135.5,50.5,115.5,58.0,111.0,61.0,119.0,57.0,127.0,54.0,134.5,51.0,131.0,55.5,112.5,63.5,100.5,71.5,96.5,79.5,93.0,88.0,90.0,96.0,85.0,104.0,79.0,112.0,70.0,115.0,78.5,107.5,86.5,94.0,94.5,76.5,83.5,76.5,72.0,84.5,69.0,92.5,68.0,100.5,67.0,108.5,68.0,116.5,76.0,114.0,84.0,104.0,92.0,90.0,100.0,72.0,108.0,65.0,116.0,62.0,123.5,58.0,131.5,55.0,139.5,52.0,148.0,50.0" stroke="black" stroke-width="2" fill="none" />
</svg>