<svg xmlns="http://www.w3.org/2000/svg" version="1.1"><polyline points="130.5,66.5,121.5,74.5,119.0,82.0,117.5,89.5,109.5,101.5,112.5,111.0,115.5,119.0,115.5,127.0,114.5,135.0,113.0,142.5,115.0,145.5,123.5,148.5" stroke="black" stroke-width="2" fill="none" />
<polyline points="124.0,146.0,118.0,144.5,119.0,136.5,119.0,128.0,120.0,120.0,121.0,111.5,116.5,107.5,108.5,106.0" stroke="black" stroke-width="2" fill="none" />
<polyline points="109.5,102.5,117.5,101.5" stroke="black" stroke-width="2" fill="none" />
<polyline points="114.5,97.5,107.0,101.5" stroke="black" stroke-width="2" fill="none" />
<polyline points="108.0,97.5,104.0,105.5,105.5,110.0,113.5,111.0" stroke="black" stroke-width="2" fill="none" />
<polyline points="129.0,114.0,137.5,111.0" stroke="black" stroke-width="2" fill="none" />
<polyline points="141.0,112.5,133.0,112.5" stroke="black" stroke-width="2" fill="none" />
<polyline points="133.0,115.0,133.0,123.0,132.0,131.0,131.0,138.5,129.5,146.5" stroke="black" stroke-width="2" fill="none" />
<polyline points="159.5,133.0,167.5,146.0,175.5,151.0,183.5,152.0,192.0,152.5,200.0,144.5,200.0,137.0,195.0,145.5" stroke="black" stroke-width="2" fill="none" />
<polyline points="200.0,130.5,192.0,132.0,183.5,135.0,175.5,128.5" stroke="black" stroke-width="2" fill="none" />
<polyline points="173.0,126.5,181.0,136.5,189.0,138.0,197.0,134.0,205.0,133.0,203.5,141.0,197.0,149.5" stroke="black" stroke-width="2" fill="none" />
<polyline points="188.5,137.0,195.5,144.0,188.0,149.0,180.0,148.5,172.5,144.0,164.5,133.0" stroke="black" stroke-width="2" fill="none" />
<polyline points="174.5,104.0,182.5,92.5,191.0,92.5,199.0,98.0,207.0,97.0" stroke="black" stroke-width="2" fill="none" />
<polyline points="203.0,93.0,195.5,92.0,187.5,87.0,179.5,88.5,171.5,98.5" stroke="black" stroke-width="2" fill="none" />
<polyline points="163.0,101.5,171.0,84.0,179.0,78.0,187.5,77.0,195.5,80.0" stroke="black" stroke-width="2" fill="none" />
<polyline points="192.0,78.0,202.5,86.0" stroke="black" stroke-width="2" fill="none" />
<polyline points="202.5,78.0,194.0,74.0,185.5,72.5,177.5,73.5,169.5,79.5,161.5,94.5" stroke="black" stroke-width="2" fill="none" />
<polyline points="147.5,96.0,150.0,104.0,148.0,112.0" stroke="black" stroke-width="2" fill="none" />
<polyline points="143.5,108.0,142.5,100.0" stroke="black" stroke-width="2" fill="none" />
<polyline points="131.0,110.5,129.0,118.5,128.5,126.0,127.5,133.5,126.5,141.5" stroke="black" stroke-width="2" fill="none" />
<polyline points="129.0,85.0,137.0,77.0,145.0,78.0" stroke="black" stroke-width="2" fill="none" />
<polyline points="149.5,82.0,141.5,81.0,134.0,85.0" stroke="black" stroke-width="2" fill="none" />
<polyline points="136.0,81.0,133.0,89.5,135.0,95.5,142.5,95.5" stroke="black" stroke-width="2" fill="none" />
<polyline points="137.5,99.0,129.5,94.5,129.0,92.5,129.5,84.5,135.5,76.5" stroke="black" stroke-width="2" fill="none" />
<polyline points="129.5,68.5,123.5,76.5,122.5,84.5,121.5,92.0" stroke="black" stroke-width="2" fill="none" />
<polyline points="119.0,78.5,127.0,67.0,135.5,66.0,143.5,68.0,151.5,73.0" stroke="black" stroke-width="2" fill="none" />
<polyline points="148.0,73.0,140.0,70.0,132.0,69.0,124.0,78.0" stroke="black" stroke-width="2" fill="none" />
<polyline points="143.5,68.0,151.5,76.0" stroke="black" stroke-width="2" fill="none" />
<polyline points="177.5,76.5,170.5,84.5,166.5,92.5,163.5,101.0,161.5,109.5,161.0,118.0,162.0,126.5,163.0,134.5,167.0,143.0" stroke="black" stroke-width="2" fill="none" />
<polyline points="178.0,131.0,176.0,123.0,174.0,115.0,175.0,107.5,177.0,99.5,185.0,91.5" stroke="black" stroke-width="2" fill="none" />
<polyline points="184.0,88.5,174.0,96.5,170.0,104.0,168.5,112.0,169.5,120.0,171.5,128.0,175.5,135.5" stroke="black" stroke-width="2" fill="none" />
<polyline points="221.0,119.0,229.5,123.0" stroke="black" stroke-width="2" fill="none" />
<polyline points="233.5,119.0,225.5,116.5" stroke="black" stroke-width="2" fill="none" />
<polyline points="244.5,117.5,243.5,125.5,245.5,134.0,247.0,142.0,248.0,150.0" stroke="black" stroke-width="2" fill="none" />
<polyline points="248.5,124.0,256.0,124.0" stroke="black" stroke-width="2" fill="none" />
<polyline points="252.5,119.0,244.5,119.5" stroke="black" stroke-width="2" fill="none" />
<polyline points="248.5,123.5,249.5,131.5,251.0,139.5,251.5,147.5,252.5,155.5" stroke="black" stroke-width="2" fill="none" />
<polyline points="291.5,156.5,292.5,148.0,291.0,139.5,290.0,131.5,290.0,123.5,292.0,115.5" stroke="black" stroke-width="2" fill="none" />
<polyline points="293.0,117.5,301.0,125.5" stroke="black" stroke-width="2" fill="none" />
<polyline points="297.5,113.5,302.5,122.0,305.0,130.0,307.0,138.0,308.0,146.0,305.0,154.5,313.0,157.5,321.0,158.0" stroke="black" stroke-width="2" fill="none" />
<polyline points="341.0,142.5,349.0,150.5" stroke="black" stroke-width="2" fill="none" />
<polyline points="328.5,118.5,320.5,120.5" stroke="black" stroke-width="2" fill="none" />
<polyline points="319.0,117.5,316.5,125.5,318.0,133.5,319.5,141.0,321.5,148.5" stroke="black" stroke-width="2" fill="none" />
<polyline points="316.5,121.0,324.0,113.5,332.0,118.0" stroke="black" stroke-width="2" fill="none" />
<polyline points="325.0,118.5,331.5,126.5,334.5,134.5,336.0,142.5,338.5,150.0" stroke="black" stroke-width="2" fill="none" />
<polyline points="304.5,150.0,304.0,142.0,303.0,134.0,301.0,126.0,298.0,118.0,297.0,113.0,288.5,118.0" stroke="black" stroke-width="2" fill="none" />
<polyline points="290.0,113.5,286.5,121.5,286.0,129.0,287.5,137.0,287.5,144.5,288.5,152.5" stroke="black" stroke-width="2" fill="none" />
<polyline points="310.0,152.5,316.0,145.5,315.0,137.0,314.0,129.0,315.0,121.0,320.5,113.5" stroke="black" stroke-width="2" fill="none" />
<polyline points="324.0,114.5,332.5,122.5,337.0,130.5,339.0,138.5,341.0,146.5,342.5,154.5,350.5,154.5" stroke="black" stroke-width="2" fill="none" />
<polyline points="339.0,104.0,331.0,92.0,323.0,89.5,315.0,91.5,307.5,90.0,300.0,90.0,292.5,96.0,284.5,86.5,276.5,85.0" stroke="black" stroke-width="2" fill="none" />
<polyline points="275.5,85.5,275.5,93.5,276.5,102.0,276.5,110.0,277.5,118.0,277.0,126.0,277.0,134.0,278.5,142.0,278.5,149.5,281.5,154.5" stroke="black" stroke-width="2" fill="none" />
<polyline points="256.0,117.0,254.0,109.0" stroke="black" stroke-width="2" fill="none" />
<polyline points="255.0,105.5,258.0,113.5,260.5,121.5" stroke="black" stroke-width="2" fill="none" />
<polyline points="256.0,90.5,248.0,85.5,240.0,93.5" stroke="black" stroke-width="2" fill="none" />
<polyline points="235.5,94.0,243.5,82.5,251.5,82.5" stroke="black" stroke-width="2" fill="none" />
<polyline points="253.0,81.5,245.0,79.5,237.0,79.0,229.0,85.0" stroke="black" stroke-width="2" fill="none" />
<polyline points="225.5,82.5,233.5,73.5,241.5,72.5,249.5,75.0,257.5,79.5" stroke="black" stroke-width="2" fill="none" />
<polyline points="254.5,85.5,248.5,80.5" stroke="black" stroke-width="2" fill="none" />
<polyline points="248.5,77.0,262.5,84.5,253.5,88.5" stroke="black" stroke-width="2" fill="none" />
<polyline points="245.5,86.0,240.5,94.0,240.5,102.0,246.5,104.0,254.5,103.5" stroke="black" stroke-width="2" fill="none" />
<polyline points="251.5,108.5,243.5,109.0,238.5,107.0,236.5,99.0,238.5,91.0,245.5,83.0" stroke="black" stroke-width="2" fill="none" />
<polyline points="235.5,77.5,229.0,85.5,228.0,94.0,229.5,102.0,224.5,110.0,225.5,118.5,235.5,126.5,235.5,134.5,236.5,142.5,237.0,150.0,240.0,155.0,248.0,152.0" stroke="black" stroke-width="2" fill="none" />
<polyline points="271.0,83.0,279.0,82.0,286.5,83.0,294.5,87.5,302.5,86.0,310.5,89.0,318.5,86.5,326.5,86.0,334.5,90.0,342.5,99.5" stroke="black" stroke-width="2" fill="none" />
<polyline points="331.0,89.0,339.0,97.0,342.5,105.0,344.5,113.0,348.0,121.0,350.0,129.0,352.0,137.0,353.5,145.5" stroke="black" stroke-width="2" fill="none" />
<polyline points="356.0,149.0,354.5,141.0,352.5,133.5,350.5,125.5,348.5,118.0,345.5,110.0,343.5,102.0,339.0,94.5,329.0,86.5" stroke="black" stroke-width="2" fill="none" />
<polyline points="291.5,96.0,287.5,88.0" stroke="black" stroke-width="2" fill="none" />
<polyline points="273.5,82.5,273.0,90.5,274.0,98.0,273.5,105.5,274.5,113.0,274.5,121.0,274.0,129.0,274.0,136.5,275.0,144.5,275.0,152.5,278.0,157.5,286.0,156.5,294.5,153.0" stroke="black" stroke-width="2" fill="none" />
<polyline points="249.5,158.5,242.0,158.5,233.5,157.5,232.5,152.5,232.5,144.5,231.5,136.5,231.5,129.0,221.5,123.0,220.5,115.5,222.5,107.5,225.5,99.0,224.5,91.0,226.5,83.0,236.0,75.0" stroke="black" stroke-width="2" fill="none" />
<polyline points="207.0,89.5,202.5,82.0,189.5,74.0" stroke="black" stroke-width="2" fill="none" />
<polyline points="178.0,73.0,169.0,81.5,163.5,89.5,162.0,97.5,159.0,105.5,158.5,113.5,158.0,121.5,159.0,129.0,161.0,137.0,165.5,145.0" stroke="black" stroke-width="2" fill="none" />
</svg>