<svg xmlns="http://www.w3.org/2000/svg" version="1.1"><polyline points="295.5,109.5,293.5,117.0,291.0,125.0,295.5,120.5,303.5,121.0" stroke="black" stroke-width="2" fill="none" />
<polyline points="311.0,123.0,303.0,112.0,294.5,110.5" stroke="black" stroke-width="2" fill="none" />
<polyline points="298.0,109.5,306.0,117.5,309.0,125.5" stroke="black" stroke-width="2" fill="none" />
<polyline points="307.0,154.5,315.0,153.5,315.5,159.5,309.5,162.0,311.0,168.0,318.5,167.5" stroke="black" stroke-width="2" fill="none" />
<polyline points="324.5,155.5,332.0,165.5" stroke="black" stroke-width="2" fill="none" />
<polyline points="339.0,160.5,330.5,152.5,327.5,155.5" stroke="black" stroke-width="2" fill="none" />
<polyline points="323.5,154.5,331.5,152.5,339.0,158.0,347.0,150.0" stroke="black" stroke-width="2" fill="none" />
<polyline points="346.5,150.0,344.0,157.5,350.0,162.5" stroke="black" stroke-width="2" fill="none" />
<polyline points="328.0,158.5,324.0,158.5,324.0,151.0" stroke="black" stroke-width="2" fill="none" />
<polyline points="313.0,157.0,304.0,160.0,296.0,153.0,288.0,153.5" stroke="black" stroke-width="2" fill="none" />
<polyline points="288.0,156.5,296.0,161.5" stroke="black" stroke-width="2" fill="none" />
<polyline points="297.0,165.0,284.0,168.5,276.0,171.0,269.5,171.5,267.0,164.0,265.5,156.5,252.5,156.5,244.5,157.5" stroke="black" stroke-width="2" fill="none" />
<polyline points="249.5,158.5,257.5,157.5,271.5,158.5" stroke="black" stroke-width="2" fill="none" />
<polyline points="270.5,155.0,273.5,163.0,277.5,166.0,285.5,166.0,298.5,169.5" stroke="black" stroke-width="2" fill="none" />
<polyline points="297.5,153.5,304.5,161.5,308.0,162.5,317.0,163.5" stroke="black" stroke-width="2" fill="none" />
<polyline points="280.5,125.5,278.0,118.0,277.5,116.0" stroke="black" stroke-width="2" fill="none" />
<polyline points="280.0,115.5,282.0,123.5" stroke="black" stroke-width="2" fill="none" />
<polyline points="271.5,124.5,268.0,123.5,266.0,116.0,265.5,117.0" stroke="black" stroke-width="2" fill="none" />
<polyline points="261.0,115.0,268.5,111.0,260.5,117.0,264.0,125.0" stroke="black" stroke-width="2" fill="none" />
<polyline points="261.5,122.0,270.0,127.5" stroke="black" stroke-width="2" fill="none" />
<polyline points="251.5,126.0,243.5,120.5,235.5,119.0,237.0,123.5,234.5,116.0,227.5,111.0,220.0,111.0,211.5,115.0" stroke="black" stroke-width="2" fill="none" />
<polyline points="215.5,116.5,224.0,115.5,237.0,113.5,245.0,118.0" stroke="black" stroke-width="2" fill="none" />
<polyline points="241.5,120.5,247.5,113.5,247.5,110.5" stroke="black" stroke-width="2" fill="none" />
<polyline points="250.5,111.0,254.0,119.0" stroke="black" stroke-width="2" fill="none" />
<polyline points="247.0,120.5,240.0,112.5" stroke="black" stroke-width="2" fill="none" />
<polyline points="224.5,125.0,216.0,124.0" stroke="black" stroke-width="2" fill="none" />
<polyline points="216.0,122.5,224.0,120.0" stroke="black" stroke-width="2" fill="none" />
<polyline points="224.5,117.5,217.0,118.5" stroke="black" stroke-width="2" fill="none" />
<polyline points="218.0,114.5,211.0,115.5,213.5,123.5,215.5,126.5,223.5,128.5" stroke="black" stroke-width="2" fill="none" />
<polyline points="200.0,126.0,198.5,118.0,198.5,115.0" stroke="black" stroke-width="2" fill="none" />
<polyline points="202.0,116.5,204.0,125.0" stroke="black" stroke-width="2" fill="none" />
<polyline points="186.5,128.0,178.5,126.5" stroke="black" stroke-width="2" fill="none" />
<polyline points="186.0,124.5,187.0,116.5,178.0,116.5" stroke="black" stroke-width="2" fill="none" />
<polyline points="181.5,116.0,175.5,115.5,175.5,123.0,180.0,123.0,182.5,125.0" stroke="black" stroke-width="2" fill="none" />
<polyline points="166.5,128.5,158.5,127.5" stroke="black" stroke-width="2" fill="none" />
<polyline points="157.5,122.5,165.5,121.5,166.5,118.5" stroke="black" stroke-width="2" fill="none" />
<polyline points="167.0,116.0,159.0,116.0" stroke="black" stroke-width="2" fill="none" />
<polyline points="156.0,112.5,154.0,120.5,154.0,129.0,159.0,132.0,167.0,132.0" stroke="black" stroke-width="2" fill="none" />
<polyline points="153.0,115.5,161.0,113.0,169.0,113.5,181.0,112.5" stroke="black" stroke-width="2" fill="none" />
<polyline points="144.0,121.0,142.5,113.0,141.5,118.0,141.5,112.0,133.0,110.5" stroke="black" stroke-width="2" fill="none" />
<polyline points="134.5,109.5,134.5,117.5,135.0,125.5,144.0,120.5" stroke="black" stroke-width="2" fill="none" />
<polyline points="126.0,120.0,121.0,122.5,114.0,129.5,117.0,121.5,118.5,113.5" stroke="black" stroke-width="2" fill="none" />
<polyline points="122.5,114.0,116.5,123.5,120.5,124.5,125.5,120.0,126.5,112.5" stroke="black" stroke-width="2" fill="none" />
<polyline points="101.5,115.5,93.5,116.5" stroke="black" stroke-width="2" fill="none" />
<polyline points="94.5,116.5,90.5,116.5,89.5,124.0,89.0,132.0,93.5,134.0,101.5,133.0" stroke="black" stroke-width="2" fill="none" />
<polyline points="100.5,130.5,92.5,128.5" stroke="black" stroke-width="2" fill="none" />
<polyline points="92.5,128.5,100.5,124.5,100.0,120.5" stroke="black" stroke-width="2" fill="none" />
<polyline points="106.5,112.5,98.5,112.5,90.5,113.0" stroke="black" stroke-width="2" fill="none" />
<polyline points="89.0,160.5,83.0,168.5,85.0,176.0,88.0,178.0,96.0,179.0,110.0,178.0,118.0,178.0,127.0,178.0,140.0,171.0,148.0,177.0" stroke="black" stroke-width="2" fill="none" />
<polyline points="151.0,173.5,142.5,171.5" stroke="black" stroke-width="2" fill="none" />
<polyline points="134.0,173.5,126.5,173.5,120.5,171.0,119.5,163.0,125.5,162.0" stroke="black" stroke-width="2" fill="none" />
<polyline points="122.0,165.0,130.0,164.0" stroke="black" stroke-width="2" fill="none" />
<polyline points="135.0,159.0,127.0,159.0,119.0,161.0" stroke="black" stroke-width="2" fill="none" />
<polyline points="106.5,161.5,107.5,169.5" stroke="black" stroke-width="2" fill="none" />
<polyline points="98.5,166.5,90.5,166.5" stroke="black" stroke-width="2" fill="none" />
<polyline points="89.0,163.5,96.5,162.5" stroke="black" stroke-width="2" fill="none" />
<polyline points="96.5,174.5,88.5,172.5" stroke="black" stroke-width="2" fill="none" />
<polyline points="87.5,170.5,95.0,169.0" stroke="black" stroke-width="2" fill="none" />
<polyline points="84.5,168.5,92.5,160.5,99.5,161.5,104.0,168.5,104.5,176.0,113.5,174.0,125.5,170.0,125.5,166.0,139.5,163.5,147.5,158.5" stroke="black" stroke-width="2" fill="none" />
<polyline points="149.5,160.0,143.5,168.0,145.5,163.5,159.0,160.5,167.0,159.0,167.5,162.0" stroke="black" stroke-width="2" fill="none" />
<polyline points="166.0,162.5,165.5,170.5" stroke="black" stroke-width="2" fill="none" />
<polyline points="158.5,171.5,154.5,163.5,154.5,163.5" stroke="black" stroke-width="2" fill="none" />
<polyline points="144.5,159.5,138.5,167.5,141.0,175.5" stroke="black" stroke-width="2" fill="none" />
<polyline points="174.0,169.5,174.0,161.0" stroke="black" stroke-width="2" fill="none" />
<polyline points="177.5,163.0,179.5,170.5" stroke="black" stroke-width="2" fill="none" />
<polyline points="190.0,168.5,187.0,160.5" stroke="black" stroke-width="2" fill="none" />
<polyline points="186.5,159.0,194.5,167.5,202.0,158.5,196.0,165.5" stroke="black" stroke-width="2" fill="none" />
<polyline points="199.0,168.5,202.0,161.0" stroke="black" stroke-width="2" fill="none" />
<polyline points="209.0,159.0,217.0,159.5" stroke="black" stroke-width="2" fill="none" />
<polyline points="214.5,158.0,222.0,166.0" stroke="black" stroke-width="2" fill="none" />
<polyline points="220.5,173.5,212.5,170.0" stroke="black" stroke-width="2" fill="none" />
<polyline points="219.0,173.0,212.0,169.5,208.0,168.5,209.0,160.5,211.5,162.5" stroke="black" stroke-width="2" fill="none" />
<polyline points="194.5,174.5,186.5,164.5,188.5,161.5" stroke="black" stroke-width="2" fill="none" />
<polyline points="249.5,165.0,257.5,163.0,258.0,161.0" stroke="black" stroke-width="2" fill="none" />
<polyline points="250.5,158.5,245.5,159.5,246.0,167.5,248.0,171.5,256.0,173.5" stroke="black" stroke-width="2" fill="none" />
<polyline points="260.0,170.0,251.5,169.0" stroke="black" stroke-width="2" fill="none" />
</svg>