<svg xmlns="http://www.w3.org/2000/svg" version="1.1"><polyline points="248.5,178.5,237.0,186.5,227.5,194.5,220.5,202.5,213.5,210.0,208.0,218.0,202.0,226.0,196.5,233.5,191.5,241.5,186.0,249.5,181.0,258.0,175.0,265.5,169.5,273.0,153.5,280.5" stroke="black" stroke-width="2" fill="none" />
<polyline points="151.5,286.0,159.0,288.0,151.0,294.5,143.0,302.5,135.5,312.0,127.5,322.0,119.5,333.0,111.5,344.0,103.0,345.5,95.0,348.5,87.0,353.5" stroke="black" stroke-width="2" fill="none" />
<polyline points="91.0,354.5,99.0,351.5,107.5,348.5,115.5,347.5,124.0,345.5,132.0,344.5,140.0,343.5,147.5,343.0,155.5,342.0,163.5,341.0,171.5,339.5,179.5,339.0,187.5,338.5,195.5,337.5,203.5,336.0,211.0,335.0,218.5,334.0" stroke="black" stroke-width="2" fill="none" />
<polyline points="265.5,325.5,273.0,324.5,281.0,322.5,289.0,320.5,297.0,318.5,305.0,317.5,313.5,314.5,321.5,313.0,329.5,311.0,338.0,309.0,346.0,307.0,354.0,306.5,362.0,304.5,370.5,302.5,378.5,301.5,387.0,299.0,395.0,297.0,403.0,296.0,411.0,294.0,419.0,292.0,427.0,288.5,435.0,286.5,442.5,283.0" stroke="black" stroke-width="2" fill="none" />
<polyline points="438.0,280.0,430.0,284.5,422.0,286.5,414.0,289.0,406.0,291.5,398.0,294.0,390.0,296.0,382.0,298.5,373.5,299.0,366.0,301.0,358.0,303.0,350.0,304.0,342.0,305.5,334.0,307.5,326.5,308.5,318.0,310.5,310.0,313.0,301.5,315.0,293.0,317.0,285.0,319.0,277.0,321.0,269.0,323.0,261.5,324.5,253.5,326.5,245.5,328.5,237.5,328.0,229.5,327.5,221.5,328.5,213.0,330.0,205.0,329.5,197.0,330.5,189.0,331.5,181.0,332.5,172.5,334.0,165.0,335.0,156.5,336.0,149.0,337.5,141.0,339.0,133.0,340.0,125.0,341.0" stroke="black" stroke-width="2" fill="none" />
<polyline points="112.5,341.5,116.5,333.5,122.5,325.5,128.5,317.5,135.0,309.5,142.0,301.5,150.0,294.0,159.5,286.0,158.0,284.0,150.0,287.0,142.0,289.0,134.0,290.5,126.0,291.5,118.0,291.5,110.0,291.0,102.0,286.0" stroke="black" stroke-width="2" fill="none" />
<polyline points="101.0,282.5,109.5,286.0,117.5,288.0,126.0,288.0,133.5,286.5,141.5,285.0,149.5,283.0,158.0,280.0,165.5,276.0,173.0,267.5,181.0,255.5,189.0,243.5,197.0,231.0,205.0,220.0,212.5,209.0,220.5,200.0,228.5,191.0,236.5,183.5,244.5,178.0,252.5,175.5,253.5,176.5,258.5,184.5,255.5,193.0,251.5,201.0,246.5,209.0,241.0,217.0,234.0,225.0,226.0,233.5,218.5,241.5,210.5,249.5,201.0,257.5,189.0,265.5,191.0,264.5,199.0,259.5,207.0,252.5,215.0,244.5,222.5,236.5,230.5,229.0,238.5,220.0,246.0,209.5,254.0,196.5,254.0,187.5,250.0,195.0,246.5,203.0,241.0,210.5,235.5,218.0,229.0,226.0,220.5,234.0,212.5,241.5,204.0,250.0,194.0,258.0,183.0,266.0,184.0,265.0,192.0,260.0,200.0,253.5,208.0,246.5,215.5,239.0,223.0,231.5,231.0,222.5,239.0,212.5,247.0,201.5" stroke="black" stroke-width="2" fill="none" />
<polyline points="248.5,182.0,237.5,190.0,229.5,198.0,222.5,206.0,215.5,214.5,209.5,222.0,203.5,230.0,198.5,237.5,193.5,245.5,188.5,253.5,182.5,261.0,178.0,267.0,186.0,256.0,194.0,244.0,202.0,232.0,210.0,221.0,217.5,210.5,225.5,200.0,233.0,192.0,241.0,184.5,249.0,179.5" stroke="black" stroke-width="2" fill="none" />
<polyline points="301.0,247.0,286.0,255.5,271.0,263.5,275.0,261.5,283.5,257.5,291.5,252.0,300.0,248.5,308.0,248.0" stroke="black" stroke-width="2" fill="none" />
<polyline points="305.5,247.5,308.0,255.5,305.0,263.5,302.0,272.0,298.0,280.0,291.0,287.0,299.0,267.0" stroke="black" stroke-width="2" fill="none" />
<polyline points="301.5,271.5,298.5,285.0,306.0,277.0,315.0,268.5,324.5,260.5,336.5,252.5" stroke="black" stroke-width="2" fill="none" />
<polyline points="335.0,256.0,325.5,264.0,315.5,272.5,308.0,280.5,300.5,289.0,299.5,285.0,308.0,276.0,316.0,269.0,324.0,262.0,332.5,256.0,340.5,253.0" stroke="black" stroke-width="2" fill="none" />
<polyline points="342.0,253.5,344.0,261.5,343.0,269.5,340.5,277.5,335.5,287.0,343.5,287.0,351.5,281.0,359.5,275.0,368.0,269.0,376.0,265.0,384.0,262.0,392.0,259.0,400.0,259.5,407.5,260.5,415.0,264.5,423.0,268.5,431.0,273.5,439.5,278.5" stroke="black" stroke-width="2" fill="none" />
<polyline points="429.0,285.0,436.5,277.0,423.5,269.0,409.0,261.0" stroke="black" stroke-width="2" fill="none" />
<polyline points="407.5,256.5,423.0,264.5,436.0,272.5,444.5,281.0" stroke="black" stroke-width="2" fill="none" />
<polyline points="387.0,261.0,369.5,269.0,357.0,276.5,345.5,284.0" stroke="black" stroke-width="2" fill="none" />
<polyline points="335.0,282.0,336.5,274.0,339.5,265.5,339.5,257.5" stroke="black" stroke-width="2" fill="none" />
<polyline points="338.5,256.5,330.5,260.5,322.5,267.5,314.5,275.0,306.5,283.0,298.0,291.0,291.0,292.0,292.0,284.0,295.0,276.0,299.0,268.0,302.0,260.0,302.5,251.5" stroke="black" stroke-width="2" fill="none" />
<polyline points="301.0,250.0,286.0,258.0,272.5,265.0,281.0,262.0,289.0,257.0,297.0,253.0" stroke="black" stroke-width="2" fill="none" />
<polyline points="247.0,272.0,237.5,279.5,226.0,287.5,214.0,295.5" stroke="black" stroke-width="2" fill="none" />
<polyline points="215.0,289.5,226.5,281.0,237.0,273.0,243.0,273.5,235.0,279.5,227.0,286.0,219.0,291.5,211.5,296.5,203.5,297.5,203.5,290.0,203.5,282.0,202.5,274.5,199.5,266.5,196.0,265.0,188.0,268.0" stroke="black" stroke-width="2" fill="none" />
<polyline points="195.5,268.0,179.5,276.0,165.5,281.5,162.5,289.5,157.0,295.5,152.5,304.0,146.5,312.0,140.5,320.0,134.5,328.0,127.5,336.0,123.0,336.0,131.0,325.0,139.5,315.0" stroke="black" stroke-width="2" fill="none" />
<polyline points="142.5,312.0,135.5,319.5,129.5,327.5,123.5,335.0,129.5,333.5,137.0,323.0,145.0,312.5,153.5,301.5,159.5,293.0,167.5,285.0,175.5,280.5,183.5,274.5,191.5,271.0,199.5,269.5" stroke="black" stroke-width="2" fill="none" />
<polyline points="198.0,270.5,199.0,278.5,199.0,286.5,201.0,294.5,207.0,295.0,215.0,290.5,223.0,286.0,231.5,279.5,239.5,274.5,247.5,270.5" stroke="black" stroke-width="2" fill="none" />
<polyline points="268.0,328.5,276.0,328.0,284.0,328.0,292.5,329.0,300.5,330.0,309.0,330.0,317.0,331.0,324.5,332.5,333.0,333.0,341.0,334.0,349.0,336.0,357.0,337.0,365.0,339.0,373.0,341.0,380.5,343.0,388.5,344.0,397.0,344.0,405.5,341.0,408.0,344.0" stroke="black" stroke-width="2" fill="none" />
<polyline points="405.5,345.5,397.0,348.5,388.5,349.5,381.0,348.5,373.0,346.5,365.0,344.5,357.0,343.0,349.0,341.0,341.0,340.0,333.0,338.5,325.0,337.0,317.0,335.0,309.0,335.0,301.0,334.0,293.5,333.0,285.5,333.5,278.0,332.5,269.5,332.0,262.0,332.0,254.5,331.5,246.5,331.0,238.5,334.5,231.0,336.0,223.0,338.0,215.0,340.0,207.0,342.5,199.0,344.5,190.5,346.5,183.0,348.5,175.0,350.5,166.5,352.5,158.5,354.5,150.5,356.5,143.0,358.0,135.0,360.0,127.0,361.0,119.0,362.0,111.5,363.0,103.0,363.0,95.5,362.0,93.5,361.5,87.0,353.5,99.0,345.5" stroke="black" stroke-width="2" fill="none" />
<polyline points="92.5,357.5,100.5,358.5,108.5,358.5,116.5,358.5,125.0,357.5,133.0,356.5,141.0,354.5,148.5,354.0,156.5,352.0,164.0,350.0,172.0,349.5,180.5,347.0,188.5,345.0,196.5,343.0,204.5,341.0,212.5,338.0,220.0,337.0" stroke="black" stroke-width="2" fill="none" />
<polyline points="145.5,304.0,138.5,312.5,131.5,320.5,125.0,328.5,120.0,337.0,120.0,336.0,127.5,325.0,135.5,315.5,144.0,306.5" stroke="black" stroke-width="2" fill="none" />
<polyline points="109.5,290.5,100.5,282.5" stroke="black" stroke-width="2" fill="none" />
<polyline points="386.5,255.0,368.5,263.0,356.5,271.0,346.0,279.0,344.5,280.5,352.5,274.5,361.0,269.0,369.5,264.5,377.5,260.5,385.5,257.5,393.5,255.5,401.5,255.5,410.0,256.5,417.5,260.5,425.0,265.0,433.5,270.0,441.0,275.0" stroke="black" stroke-width="2" fill="none" />
</svg>