<svg xmlns="http://www.w3.org/2000/svg" version="1.1"><polyline points="234.5,133.0,231.5,141.5,230.5,149.5,231.5,157.5,235.0,165.5" stroke="black" stroke-width="2" fill="none" />
<polyline points="236.0,157.5,244.0,166.5,251.5,163.5" stroke="black" stroke-width="2" fill="none" />
<polyline points="257.5,158.5,265.5,152.5,273.0,153.5,274.5,161.5,271.5,169.5" stroke="black" stroke-width="2" fill="none" />
<polyline points="271.0,161.0,270.0,155.0,262.0,159.0" stroke="black" stroke-width="2" fill="none" />
<polyline points="265.0,166.5,258.5,165.5,257.5,158.0,267.5,149.5,259.0,150.0" stroke="black" stroke-width="2" fill="none" />
<polyline points="259.0,146.5,267.0,144.5,268.0,154.5,262.0,163.0" stroke="black" stroke-width="2" fill="none" />
<polyline points="243.0,149.0,235.0,156.0" stroke="black" stroke-width="2" fill="none" />
<polyline points="235.0,141.0,236.0,140.0,234.0,148.0,235.0,164.0,243.0,171.0,251.0,169.0,263.5,171.0,271.5,168.0,278.5,165.0" stroke="black" stroke-width="2" fill="none" />
<polyline points="299.5,168.0,296.0,172.5,296.0,163.0,295.0,154.5,295.5,146.5,295.5,138.0,296.0,135.0" stroke="black" stroke-width="2" fill="none" />
<polyline points="297.0,136.5,298.0,144.5,297.5,152.5,298.5,161.0,302.5,173.0,300.5,175.5" stroke="black" stroke-width="2" fill="none" />
<polyline points="237.5,160.5,239.5,152.5,245.0,144.5,243.5,137.0,240.5,134.0,232.5,140.0" stroke="black" stroke-width="2" fill="none" />
<polyline points="238.0,139.5,239.0,147.5,239.0,147.0" stroke="black" stroke-width="2" fill="none" />
<polyline points="215.0,156.5,207.0,156.5" stroke="black" stroke-width="2" fill="none" />
<polyline points="206.5,155.5,206.5,163.5" stroke="black" stroke-width="2" fill="none" />
<polyline points="203.5,167.5,211.5,175.5,219.5,174.5" stroke="black" stroke-width="2" fill="none" />
<polyline points="219.0,163.5,212.0,156.0" stroke="black" stroke-width="2" fill="none" />
<polyline points="212.0,153.0,220.0,160.5,222.5,168.5" stroke="black" stroke-width="2" fill="none" />
<polyline points="216.5,154.0,208.5,152.0,200.5,157.0" stroke="black" stroke-width="2" fill="none" />
<polyline points="204.5,152.0,199.5,160.0,202.0,168.0,207.5,167.5,216.0,170.5" stroke="black" stroke-width="2" fill="none" />
<polyline points="198.0,178.0,190.0,173.5,191.0,168.5,190.0,160.5,181.5,161.5,173.5,166.5" stroke="black" stroke-width="2" fill="none" />
<polyline points="179.0,160.0,173.0,168.0,173.0,176.5" stroke="black" stroke-width="2" fill="none" />
<polyline points="187.0,169.0,186.0,161.0" stroke="black" stroke-width="2" fill="none" />
<polyline points="168.5,154.0,168.5,141.0,170.5,136.5,163.0,136.5" stroke="black" stroke-width="2" fill="none" />
<polyline points="165.0,135.0,162.0,143.0,164.0,151.0,166.5,163.0,168.5,170.5,170.0,179.0" stroke="black" stroke-width="2" fill="none" />
<polyline points="161.5,157.5,153.5,158.5" stroke="black" stroke-width="2" fill="none" />
<polyline points="154.5,154.5,162.0,153.0" stroke="black" stroke-width="2" fill="none" />
<polyline points="167.0,149.0,167.0,141.5" stroke="black" stroke-width="2" fill="none" />
<polyline points="171.0,140.0,172.0,148.5,168.5,156.5,171.0,161.5,179.0,157.5,187.0,157.5,195.0,172.0" stroke="black" stroke-width="2" fill="none" />
<polyline points="4.5,373.0,4.5,381.0" stroke="black" stroke-width="2" fill="none" />
</svg>